# xmcd CD database file
#
# Track frame offsets:
#	150
#	41414
#	81005
#	110672
#	141137
#	171920
#	205349
#	225345
#
# Disc length: 3270 seconds
#
# Revision: 0
# Processed by: cddbd v1.4PL0 Copyright (c) Steve Scherf et al.
# Submitted via: CDex 1.50beta9
#
DISCID=630cc408
DTITLE=The James Muller Quartet - thrum
DYEAR=2002
DGENRE=Jazz
TTITLE0=adelaide
TTITLE1=master
TTITLE2=happy camper
TTITLE3=all join hands
TTITLE4=green eyes
TTITLE5=play with this
TTITLE6=hume
TTITLE7=paul bley
EXTD=YEAR: 2002
EXTT0=
EXTT1=
EXTT2=
EXTT3=
EXTT4=
EXTT5=
EXTT6=
EXTT7=
PLAYORDER=
